<?xml version="1.0" encoding="UTF-8" standalone="no"?>
<!DOCTYPE svg PUBLIC "-//W3C//DTD SVG 1.1//EN"
 "http://www.w3.org/Graphics/SVG/1.1/DTD/svg11.dtd">
<!-- Generated by graphviz version 12.1.0 (20240811.2233)
 -->
<!-- Title: G Pages: 1 -->
<svg width="102pt" height="120pt"
 viewBox="0.00 0.00 102.13 120.26" xmlns="http://www.w3.org/2000/svg" xmlns:xlink="http://www.w3.org/1999/xlink">
<g id="graph0" class="graph" transform="scale(1 1) rotate(0) translate(4 116.26)">
<title>G</title>
<polygon fill="white" stroke="none" points="-4,4 -4,-116.26 98.13,-116.26 98.13,4 -4,4"/>
<!-- n0 -->
<g id="node1" class="node">
<title>n0</title>
<ellipse fill="none" stroke="black" cx="46" cy="-94.26" rx="18" ry="18"/>
<text text-anchor="middle" x="46" y="-89.21" font-family="Times New Roman,serif" font-size="14.00">5</text>
</g>
<!-- n1 -->
<g id="node2" class="node">
<title>n1</title>
<ellipse fill="none" stroke="black" cx="18" cy="-20.13" rx="18" ry="18"/>
<text text-anchor="middle" x="18" y="-15.08" font-family="Times New Roman,serif" font-size="14.00">4</text>
</g>
<!-- n0&#45;&gt;n1 -->
<g id="edge1" class="edge">
<title>n0&#45;&gt;n1</title>
<path fill="none" stroke="black" d="M39.65,-76.89C36.32,-68.32 32.16,-57.6 28.37,-47.85"/>
<polygon fill="black" stroke="black" points="31.76,-46.9 24.88,-38.84 25.23,-49.43 31.76,-46.9"/>
</g>
<!-- n2 -->
<g id="node3" class="node">
<title>n2</title>
<ellipse fill="none" stroke="black" cx="74" cy="-20.13" rx="20.13" ry="20.13"/>
<text text-anchor="middle" x="74" y="-15.08" font-family="Times New Roman,serif" font-size="14.00">10</text>
</g>
<!-- n0&#45;&gt;n2 -->
<g id="edge2" class="edge">
<title>n0&#45;&gt;n2</title>
<path fill="none" stroke="black" d="M52.35,-76.89C55.43,-68.97 59.21,-59.23 62.75,-50.11"/>
<polygon fill="black" stroke="black" points="65.98,-51.46 66.34,-40.87 59.45,-48.93 65.98,-51.46"/>
</g>
</g>
</svg>
