<?xml version="1.0" encoding="UTF-8" standalone="no"?>
<!DOCTYPE svg PUBLIC "-//W3C//DTD SVG 1.1//EN"
 "http://www.w3.org/Graphics/SVG/1.1/DTD/svg11.dtd">
<!-- Generated by graphviz version 12.1.0 (20240811.2233)
 -->
<!-- Title: G Pages: 1 -->
<svg width="456pt" height="731pt"
 viewBox="0.00 0.00 456.20 731.25" xmlns="http://www.w3.org/2000/svg" xmlns:xlink="http://www.w3.org/1999/xlink">
<g id="graph0" class="graph" transform="scale(1 1) rotate(0) translate(4 727.25)">
<title>G</title>
<polygon fill="white" stroke="none" points="-4,4 -4,-727.25 452.2,-727.25 452.2,4 -4,4"/>
<!-- n0 -->
<g id="node1" class="node">
<title>n0</title>
<ellipse fill="none" stroke="black" cx="225.96" cy="-613.82" rx="109.42" ry="109.42"/>
<text text-anchor="middle" x="225.96" y="-633.52" font-family="Times New Roman,serif" font-size="14.00" fill="red">de</text>
<text text-anchor="middle" x="225.96" y="-617.02" font-family="Times New Roman,serif" font-size="14.00" fill="red">ID: LUaN9LqL5V15Ud4</text>
<text text-anchor="middle" x="225.96" y="-600.52" font-family="Times New Roman,serif" font-size="14.00" fill="red">Descripci贸n: s</text>
<text text-anchor="middle" x="225.96" y="-584.02" font-family="Times New Roman,serif" font-size="14.00" fill="red">Tiempo: 56</text>
</g>
<!-- n1 -->
<g id="node2" class="node">
<title>n1</title>
<ellipse fill="none" stroke="black" cx="109.96" cy="-358.44" rx="109.96" ry="109.96"/>
<text text-anchor="middle" x="109.96" y="-378.14" font-family="Times New Roman,serif" font-size="14.00" fill="red">de</text>
<text text-anchor="middle" x="109.96" y="-361.64" font-family="Times New Roman,serif" font-size="14.00" fill="red">ID: 2a09R6GkCvFMD54</text>
<text text-anchor="middle" x="109.96" y="-345.14" font-family="Times New Roman,serif" font-size="14.00" fill="red">Descripci贸n: sa</text>
<text text-anchor="middle" x="109.96" y="-328.64" font-family="Times New Roman,serif" font-size="14.00" fill="red">Tiempo: 2</text>
</g>
<!-- n0&#45;&gt;n1 -->
<g id="edge1" class="edge">
<title>n0&#45;&gt;n1</title>
<path fill="none" stroke="black" d="M180.61,-513.77C173.9,-499.11 166.95,-483.93 160.14,-469.07"/>
<polygon fill="black" stroke="black" points="163.44,-467.85 156.09,-460.22 157.07,-470.77 163.44,-467.85"/>
</g>
<!-- n2 -->
<g id="node3" class="node">
<title>n2</title>
<ellipse fill="none" stroke="black" cx="341.96" cy="-358.44" rx="103.59" ry="103.59"/>
<text text-anchor="middle" x="341.96" y="-378.14" font-family="Times New Roman,serif" font-size="14.00" fill="green">s</text>
<text text-anchor="middle" x="341.96" y="-361.64" font-family="Times New Roman,serif" font-size="14.00" fill="green">ID: GWlRB5t6t4JY98P</text>
<text text-anchor="middle" x="341.96" y="-345.14" font-family="Times New Roman,serif" font-size="14.00" fill="green">Descripci贸n: e</text>
<text text-anchor="middle" x="341.96" y="-328.64" font-family="Times New Roman,serif" font-size="14.00" fill="green">Tiempo: 56</text>
</g>
<!-- n0&#45;&gt;n2 -->
<g id="edge2" class="edge">
<title>n0&#45;&gt;n2</title>
<path fill="none" stroke="black" d="M271.3,-513.77C278.88,-497.22 286.76,-480 294.39,-463.33"/>
<polygon fill="black" stroke="black" points="297.5,-464.96 298.48,-454.41 291.13,-462.05 297.5,-464.96"/>
</g>
<!-- n3 -->
<g id="node4" class="node">
<title>n3</title>
<ellipse fill="none" stroke="black" cx="341.96" cy="-106.24" rx="106.24" ry="106.24"/>
<text text-anchor="middle" x="341.96" y="-125.94" font-family="Times New Roman,serif" font-size="14.00" fill="green">ader</text>
<text text-anchor="middle" x="341.96" y="-109.44" font-family="Times New Roman,serif" font-size="14.00" fill="green">ID: A8l0ToKAw483Hdy</text>
<text text-anchor="middle" x="341.96" y="-92.94" font-family="Times New Roman,serif" font-size="14.00" fill="green">Descripci贸n: ad</text>
<text text-anchor="middle" x="341.96" y="-76.44" font-family="Times New Roman,serif" font-size="14.00" fill="green">Tiempo: 2</text>
</g>
<!-- n2&#45;&gt;n3 -->
<g id="edge3" class="edge">
<title>n2&#45;&gt;n3</title>
<path fill="none" stroke="black" d="M341.96,-254.59C341.96,-244.6 341.96,-234.42 341.96,-224.31"/>
<polygon fill="black" stroke="black" points="345.46,-224.44 341.96,-214.44 338.46,-224.44 345.46,-224.44"/>
</g>
</g>
</svg>
