<?xml version="1.0" encoding="UTF-8" standalone="no"?>
<!DOCTYPE svg PUBLIC "-//W3C//DTD SVG 1.1//EN"
 "http://www.w3.org/Graphics/SVG/1.1/DTD/svg11.dtd">
<!-- Generated by graphviz version 12.1.0 (20240811.2233)
 -->
<!-- Title: G Pages: 1 -->
<svg width="215pt" height="273pt"
 viewBox="0.00 0.00 215.13 272.79" xmlns="http://www.w3.org/2000/svg" xmlns:xlink="http://www.w3.org/1999/xlink">
<g id="graph0" class="graph" transform="scale(1 1) rotate(0) translate(4 268.79)">
<title>G</title>
<polygon fill="white" stroke="none" points="-4,4 -4,-268.79 211.13,-268.79 211.13,4 -4,4"/>
<!-- n0 -->
<g id="node1" class="node">
<title>n0</title>
<ellipse fill="none" stroke="black" cx="46" cy="-246.79" rx="18" ry="18"/>
<text text-anchor="middle" x="46" y="-241.74" font-family="Times New Roman,serif" font-size="14.00">3</text>
</g>
<!-- n1 -->
<g id="node2" class="node">
<title>n1</title>
<ellipse fill="none" stroke="black" cx="18" cy="-172.66" rx="18" ry="18"/>
<text text-anchor="middle" x="18" y="-167.61" font-family="Times New Roman,serif" font-size="14.00">1</text>
</g>
<!-- n0&#45;&gt;n1 -->
<g id="edge1" class="edge">
<title>n0&#45;&gt;n1</title>
<path fill="none" stroke="black" d="M39.65,-229.42C36.32,-220.84 32.16,-210.12 28.37,-200.38"/>
<polygon fill="black" stroke="black" points="31.76,-199.43 24.88,-191.37 25.23,-201.96 31.76,-199.43"/>
</g>
<!-- n3 -->
<g id="node4" class="node">
<title>n3</title>
<ellipse fill="none" stroke="black" cx="74" cy="-172.66" rx="20.13" ry="20.13"/>
<text text-anchor="middle" x="74" y="-167.61" font-family="Times New Roman,serif" font-size="14.00">10</text>
</g>
<!-- n0&#45;&gt;n3 -->
<g id="edge3" class="edge">
<title>n0&#45;&gt;n3</title>
<path fill="none" stroke="black" d="M52.35,-229.42C55.43,-221.5 59.21,-211.75 62.75,-202.63"/>
<polygon fill="black" stroke="black" points="65.98,-203.99 66.34,-193.4 59.45,-201.46 65.98,-203.99"/>
</g>
<!-- n2 -->
<g id="node3" class="node">
<title>n2</title>
<ellipse fill="none" stroke="black" cx="18" cy="-96.39" rx="18" ry="18"/>
<text text-anchor="middle" x="18" y="-91.34" font-family="Times New Roman,serif" font-size="14.00">0</text>
</g>
<!-- n1&#45;&gt;n2 -->
<g id="edge2" class="edge">
<title>n1&#45;&gt;n2</title>
<path fill="none" stroke="black" d="M18,-154.43C18,-146.06 18,-135.76 18,-126.24"/>
<polygon fill="black" stroke="black" points="21.5,-126.29 18,-116.29 14.5,-126.29 21.5,-126.29"/>
</g>
<!-- n4 -->
<g id="node5" class="node">
<title>n4</title>
<ellipse fill="none" stroke="black" cx="73" cy="-96.39" rx="18" ry="18"/>
<text text-anchor="middle" x="73" y="-91.34" font-family="Times New Roman,serif" font-size="14.00">5</text>
</g>
<!-- n3&#45;&gt;n4 -->
<g id="edge4" class="edge">
<title>n3&#45;&gt;n4</title>
<path fill="none" stroke="black" d="M73.74,-152.14C73.63,-144.17 73.5,-134.78 73.39,-126.05"/>
<polygon fill="black" stroke="black" points="76.89,-126.21 73.25,-116.26 69.89,-126.31 76.89,-126.21"/>
</g>
<!-- n7 -->
<g id="node8" class="node">
<title>n7</title>
<ellipse fill="none" stroke="black" cx="129" cy="-96.39" rx="20.13" ry="20.13"/>
<text text-anchor="middle" x="129" y="-91.34" font-family="Times New Roman,serif" font-size="14.00">12</text>
</g>
<!-- n3&#45;&gt;n7 -->
<g id="edge7" class="edge">
<title>n3&#45;&gt;n7</title>
<path fill="none" stroke="black" d="M85.66,-155.91C92.88,-146.16 102.31,-133.43 110.53,-122.33"/>
<polygon fill="black" stroke="black" points="113.31,-124.46 116.45,-114.34 107.69,-120.29 113.31,-124.46"/>
</g>
<!-- n5 -->
<g id="node6" class="node">
<title>n5</title>
<ellipse fill="none" stroke="black" cx="19" cy="-20.13" rx="18" ry="18"/>
<text text-anchor="middle" x="19" y="-15.08" font-family="Times New Roman,serif" font-size="14.00">4</text>
</g>
<!-- n4&#45;&gt;n5 -->
<g id="edge5" class="edge">
<title>n4&#45;&gt;n5</title>
<path fill="none" stroke="black" d="M62.84,-81.43C55.27,-71.02 44.76,-56.56 35.93,-44.41"/>
<polygon fill="black" stroke="black" points="38.9,-42.54 30.19,-36.51 33.24,-46.66 38.9,-42.54"/>
</g>
<!-- n6 -->
<g id="node7" class="node">
<title>n6</title>
<ellipse fill="none" stroke="black" cx="73" cy="-20.13" rx="18" ry="18"/>
<text text-anchor="middle" x="73" y="-15.08" font-family="Times New Roman,serif" font-size="14.00">6</text>
</g>
<!-- n4&#45;&gt;n6 -->
<g id="edge6" class="edge">
<title>n4&#45;&gt;n6</title>
<path fill="none" stroke="black" d="M73,-78.17C73,-69.79 73,-59.5 73,-49.97"/>
<polygon fill="black" stroke="black" points="76.5,-50.03 73,-40.03 69.5,-50.03 76.5,-50.03"/>
</g>
<!-- n8 -->
<g id="node9" class="node">
<title>n8</title>
<ellipse fill="none" stroke="black" cx="129" cy="-20.13" rx="20.13" ry="20.13"/>
<text text-anchor="middle" x="129" y="-15.08" font-family="Times New Roman,serif" font-size="14.00">11</text>
</g>
<!-- n7&#45;&gt;n8 -->
<g id="edge8" class="edge">
<title>n7&#45;&gt;n8</title>
<path fill="none" stroke="black" d="M129,-75.88C129,-68.55 129,-60.02 129,-51.91"/>
<polygon fill="black" stroke="black" points="132.5,-52.03 129,-42.03 125.5,-52.03 132.5,-52.03"/>
</g>
<!-- n9 -->
<g id="node10" class="node">
<title>n9</title>
<ellipse fill="none" stroke="black" cx="187" cy="-20.13" rx="20.13" ry="20.13"/>
<text text-anchor="middle" x="187" y="-15.08" font-family="Times New Roman,serif" font-size="14.00">14</text>
</g>
<!-- n7&#45;&gt;n9 -->
<g id="edge9" class="edge">
<title>n7&#45;&gt;n9</title>
<path fill="none" stroke="black" d="M141.02,-80.01C148.74,-70.12 158.95,-57.05 167.78,-45.73"/>
<polygon fill="black" stroke="black" points="170.47,-47.98 173.87,-37.95 164.95,-43.67 170.47,-47.98"/>
</g>
</g>
</svg>
