<?xml version="1.0" encoding="UTF-8" standalone="no"?>
<!DOCTYPE svg PUBLIC "-//W3C//DTD SVG 1.1//EN"
 "http://www.w3.org/Graphics/SVG/1.1/DTD/svg11.dtd">
<!-- Generated by graphviz version 12.1.0 (20240811.2233)
 -->
<!-- Title: G Pages: 1 -->
<svg width="116pt" height="215pt"
 viewBox="0.00 0.00 116.47 214.95" xmlns="http://www.w3.org/2000/svg" xmlns:xlink="http://www.w3.org/1999/xlink">
<g id="graph0" class="graph" transform="scale(1 1) rotate(0) translate(4 210.95)">
<title>G</title>
<polygon fill="white" stroke="none" points="-4,4 -4,-210.95 112.47,-210.95 112.47,4 -4,4"/>
<!-- n0 -->
<g id="node1" class="node">
<title>n0</title>
<ellipse fill="none" stroke="black" cx="51.69" cy="-188.95" rx="18" ry="18"/>
<text text-anchor="middle" x="51.69" y="-183.9" font-family="Times New Roman,serif" font-size="14.00">g</text>
</g>
<!-- n1 -->
<g id="node2" class="node">
<title>n1</title>
<ellipse fill="none" stroke="black" cx="22.69" cy="-112.26" rx="22.69" ry="22.69"/>
<text text-anchor="middle" x="22.69" y="-107.21" font-family="Times New Roman,serif" font-size="14.00">adr</text>
</g>
<!-- n0&#45;&gt;n1 -->
<g id="edge1" class="edge">
<title>n0&#45;&gt;n1</title>
<path fill="none" stroke="black" d="M45.4,-171.74C42.31,-163.79 38.48,-153.92 34.85,-144.58"/>
<polygon fill="black" stroke="black" points="38.17,-143.45 31.29,-135.4 31.64,-145.99 38.17,-143.45"/>
</g>
<!-- n2 -->
<g id="node3" class="node">
<title>n2</title>
<ellipse fill="none" stroke="black" cx="81.69" cy="-112.26" rx="18" ry="18"/>
<text text-anchor="middle" x="81.69" y="-107.21" font-family="Times New Roman,serif" font-size="14.00">g</text>
</g>
<!-- n0&#45;&gt;n2 -->
<g id="edge2" class="edge">
<title>n0&#45;&gt;n2</title>
<path fill="none" stroke="black" d="M58.2,-171.74C61.93,-162.44 66.72,-150.54 70.99,-139.9"/>
<polygon fill="black" stroke="black" points="74.15,-141.42 74.63,-130.84 67.65,-138.81 74.15,-141.42"/>
</g>
<!-- n3 -->
<g id="node4" class="node">
<title>n3</title>
<ellipse fill="none" stroke="black" cx="81.69" cy="-26.78" rx="26.78" ry="26.78"/>
<text text-anchor="middle" x="81.69" y="-21.73" font-family="Times New Roman,serif" font-size="14.00">juan</text>
</g>
<!-- n2&#45;&gt;n3 -->
<g id="edge3" class="edge">
<title>n2&#45;&gt;n3</title>
<path fill="none" stroke="black" d="M81.69,-93.96C81.69,-85.66 81.69,-75.36 81.69,-65.38"/>
<polygon fill="black" stroke="black" points="85.19,-65.46 81.69,-55.46 78.19,-65.46 85.19,-65.46"/>
</g>
</g>
</svg>
