<?xml version="1.0" encoding="UTF-8" standalone="no"?>
<!DOCTYPE svg PUBLIC "-//W3C//DTD SVG 1.1//EN"
 "http://www.w3.org/Graphics/SVG/1.1/DTD/svg11.dtd">
<!-- Generated by graphviz version 12.1.0 (20240811.2233)
 -->
<!-- Title: G Pages: 1 -->
<svg width="148pt" height="258pt"
 viewBox="0.00 0.00 148.25 258.11" xmlns="http://www.w3.org/2000/svg" xmlns:xlink="http://www.w3.org/1999/xlink">
<g id="graph0" class="graph" transform="scale(1 1) rotate(0) translate(4 254.11)">
<title>G</title>
<polygon fill="white" stroke="none" points="-4,4 -4,-254.11 144.25,-254.11 144.25,4 -4,4"/>
<!-- n0 -->
<g id="node1" class="node">
<title>n0</title>
<ellipse fill="none" stroke="black" cx="66.3" cy="-213.09" rx="37.02" ry="37.02"/>
<text text-anchor="middle" x="66.3" y="-208.04" font-family="Times New Roman,serif" font-size="14.00">alfredo</text>
</g>
<!-- n1 -->
<g id="node2" class="node">
<title>n1</title>
<ellipse fill="none" stroke="black" cx="27.3" cy="-106.12" rx="27.3" ry="27.3"/>
<text text-anchor="middle" x="27.3" y="-101.07" font-family="Times New Roman,serif" font-size="14.00">tono</text>
</g>
<!-- n0&#45;&gt;n1 -->
<g id="edge1" class="edge">
<title>n0&#45;&gt;n1</title>
<path fill="none" stroke="black" d="M53.63,-178.01C49.42,-166.67 44.72,-154.01 40.47,-142.57"/>
<polygon fill="black" stroke="black" points="43.85,-141.63 37.09,-133.47 37.29,-144.06 43.85,-141.63"/>
</g>
<!-- n3 -->
<g id="node4" class="node">
<title>n3</title>
<ellipse fill="none" stroke="black" cx="106.3" cy="-106.12" rx="33.95" ry="33.95"/>
<text text-anchor="middle" x="106.3" y="-101.07" font-family="Times New Roman,serif" font-size="14.00">marca</text>
</g>
<!-- n0&#45;&gt;n3 -->
<g id="edge3" class="edge">
<title>n0&#45;&gt;n3</title>
<path fill="none" stroke="black" d="M79.28,-178.01C82.83,-168.7 86.71,-158.51 90.4,-148.83"/>
<polygon fill="black" stroke="black" points="93.63,-150.19 93.92,-139.6 87.09,-147.7 93.63,-150.19"/>
</g>
<!-- n2 -->
<g id="node3" class="node">
<title>n2</title>
<ellipse fill="none" stroke="black" cx="27.3" cy="-18.08" rx="18.08" ry="18.08"/>
<text text-anchor="middle" x="27.3" y="-13.03" font-family="Times New Roman,serif" font-size="14.00">ju</text>
</g>
<!-- n1&#45;&gt;n2 -->
<g id="edge2" class="edge">
<title>n1&#45;&gt;n2</title>
<path fill="none" stroke="black" d="M27.3,-78.37C27.3,-68.69 27.3,-57.72 27.3,-47.87"/>
<polygon fill="black" stroke="black" points="30.8,-48.1 27.3,-38.1 23.8,-48.1 30.8,-48.1"/>
</g>
</g>
</svg>
