<?xml version="1.0" encoding="UTF-8" standalone="no"?>
<!DOCTYPE svg PUBLIC "-//W3C//DTD SVG 1.1//EN"
 "http://www.w3.org/Graphics/SVG/1.1/DTD/svg11.dtd">
<!-- Generated by graphviz version 12.1.0 (20240811.2233)
 -->
<!-- Title: G Pages: 1 -->
<svg width="156pt" height="197pt"
 viewBox="0.00 0.00 156.13 196.52" xmlns="http://www.w3.org/2000/svg" xmlns:xlink="http://www.w3.org/1999/xlink">
<g id="graph0" class="graph" transform="scale(1 1) rotate(0) translate(4 192.52)">
<title>G</title>
<polygon fill="white" stroke="none" points="-4,4 -4,-192.52 152.13,-192.52 152.13,4 -4,4"/>
<!-- n0 -->
<g id="node1" class="node">
<title>n0</title>
<ellipse fill="none" stroke="black" cx="100" cy="-170.52" rx="18" ry="18"/>
<text text-anchor="middle" x="100" y="-165.47" font-family="Times New Roman,serif" font-size="14.00">5</text>
</g>
<!-- n1 -->
<g id="node2" class="node">
<title>n1</title>
<ellipse fill="none" stroke="black" cx="72" cy="-96.39" rx="18" ry="18"/>
<text text-anchor="middle" x="72" y="-91.34" font-family="Times New Roman,serif" font-size="14.00">1</text>
</g>
<!-- n0&#45;&gt;n1 -->
<g id="edge1" class="edge">
<title>n0&#45;&gt;n1</title>
<path fill="none" stroke="black" d="M93.65,-153.16C90.32,-144.58 86.16,-133.86 82.37,-124.12"/>
<polygon fill="black" stroke="black" points="85.76,-123.16 78.88,-115.11 79.23,-125.7 85.76,-123.16"/>
</g>
<!-- n4 -->
<g id="node5" class="node">
<title>n4</title>
<ellipse fill="none" stroke="black" cx="128" cy="-96.39" rx="20.13" ry="20.13"/>
<text text-anchor="middle" x="128" y="-91.34" font-family="Times New Roman,serif" font-size="14.00">11</text>
</g>
<!-- n0&#45;&gt;n4 -->
<g id="edge4" class="edge">
<title>n0&#45;&gt;n4</title>
<path fill="none" stroke="black" d="M106.35,-153.16C109.43,-145.24 113.21,-135.49 116.75,-126.37"/>
<polygon fill="black" stroke="black" points="119.98,-127.73 120.34,-117.14 113.45,-125.19 119.98,-127.73"/>
</g>
<!-- n2 -->
<g id="node3" class="node">
<title>n2</title>
<ellipse fill="none" stroke="black" cx="18" cy="-20.13" rx="18" ry="18"/>
<text text-anchor="middle" x="18" y="-15.08" font-family="Times New Roman,serif" font-size="14.00">0</text>
</g>
<!-- n1&#45;&gt;n2 -->
<g id="edge2" class="edge">
<title>n1&#45;&gt;n2</title>
<path fill="none" stroke="black" d="M61.84,-81.43C54.27,-71.02 43.76,-56.56 34.93,-44.41"/>
<polygon fill="black" stroke="black" points="37.9,-42.54 29.19,-36.51 32.24,-46.66 37.9,-42.54"/>
</g>
<!-- n3 -->
<g id="node4" class="node">
<title>n3</title>
<ellipse fill="none" stroke="black" cx="72" cy="-20.13" rx="18" ry="18"/>
<text text-anchor="middle" x="72" y="-15.08" font-family="Times New Roman,serif" font-size="14.00">4</text>
</g>
<!-- n1&#45;&gt;n3 -->
<g id="edge3" class="edge">
<title>n1&#45;&gt;n3</title>
<path fill="none" stroke="black" d="M72,-78.17C72,-69.79 72,-59.5 72,-49.97"/>
<polygon fill="black" stroke="black" points="75.5,-50.03 72,-40.03 68.5,-50.03 75.5,-50.03"/>
</g>
<!-- n5 -->
<g id="node6" class="node">
<title>n5</title>
<ellipse fill="none" stroke="black" cx="128" cy="-20.13" rx="20.13" ry="20.13"/>
<text text-anchor="middle" x="128" y="-15.08" font-family="Times New Roman,serif" font-size="14.00">14</text>
</g>
<!-- n4&#45;&gt;n5 -->
<g id="edge5" class="edge">
<title>n4&#45;&gt;n5</title>
<path fill="none" stroke="black" d="M128,-75.88C128,-68.55 128,-60.02 128,-51.91"/>
<polygon fill="black" stroke="black" points="131.5,-52.03 128,-42.03 124.5,-52.03 131.5,-52.03"/>
</g>
</g>
</svg>
