<?xml version="1.0" encoding="UTF-8" standalone="no"?>
<!DOCTYPE svg PUBLIC "-//W3C//DTD SVG 1.1//EN"
 "http://www.w3.org/Graphics/SVG/1.1/DTD/svg11.dtd">
<!-- Generated by graphviz version 12.1.0 (20240811.2233)
 -->
<!-- Title: G Pages: 1 -->
<svg width="821pt" height="210pt"
 viewBox="0.00 0.00 820.50 209.50" xmlns="http://www.w3.org/2000/svg" xmlns:xlink="http://www.w3.org/1999/xlink">
<g id="graph0" class="graph" transform="scale(1 1) rotate(0) translate(4 205.5)">
<title>G</title>
<polygon fill="white" stroke="none" points="-4,4 -4,-205.5 816.5,-205.5 816.5,4 -4,4"/>
<text text-anchor="middle" x="406.25" y="-178.5" font-family="Times New Roman,serif" font-size="20.00" fill="red">Transacciones</text>
<!-- nodo0 -->
<g id="node1" class="node">
<title>nodo0</title>
<polygon fill="gray" stroke="black" points="187,-107 0,-107 0,0 187,0 187,-107"/>
<text text-anchor="middle" x="93.5" y="-89.7" font-family="Times New Roman,serif" font-size="14.00" fill="white">ID: 776TJDW1qxa4332</text>
<text text-anchor="middle" x="93.5" y="-73.2" font-family="Times New Roman,serif" font-size="14.00" fill="white">Activo: pEqCmOQ8B1D84KD</text>
<text text-anchor="middle" x="93.5" y="-56.7" font-family="Times New Roman,serif" font-size="14.00" fill="white">Usuario: juan</text>
<text text-anchor="middle" x="93.5" y="-40.2" font-family="Times New Roman,serif" font-size="14.00" fill="white">Depto/Emp: depa / empre</text>
<text text-anchor="middle" x="93.5" y="-23.7" font-family="Times New Roman,serif" font-size="14.00" fill="white">Fecha: 17/12/2024</text>
<text text-anchor="middle" x="93.5" y="-7.2" font-family="Times New Roman,serif" font-size="14.00" fill="white">Tiempo: 4 días</text>
</g>
<!-- nodo1 -->
<g id="node2" class="node">
<title>nodo1</title>
<polygon fill="gray" stroke="black" points="404.75,-171 223,-171 223,-64 404.75,-64 404.75,-171"/>
<text text-anchor="middle" x="313.88" y="-153.7" font-family="Times New Roman,serif" font-size="14.00" fill="white">ID: KxlInk99371CBlk</text>
<text text-anchor="middle" x="313.88" y="-137.2" font-family="Times New Roman,serif" font-size="14.00" fill="white">Activo: G1dqAJuPwAAdXxG</text>
<text text-anchor="middle" x="313.88" y="-120.7" font-family="Times New Roman,serif" font-size="14.00" fill="white">Usuario: juan</text>
<text text-anchor="middle" x="313.88" y="-104.2" font-family="Times New Roman,serif" font-size="14.00" fill="white">Depto/Emp: depa / empre</text>
<text text-anchor="middle" x="313.88" y="-87.7" font-family="Times New Roman,serif" font-size="14.00" fill="white">Fecha: 17/12/2024</text>
<text text-anchor="middle" x="313.88" y="-71.2" font-family="Times New Roman,serif" font-size="14.00" fill="white">Tiempo: 11 días</text>
</g>
<!-- nodo0&#45;&gt;nodo1 -->
<g id="edge1" class="edge">
<title>nodo0&#45;&gt;nodo1</title>
<path fill="none" stroke="orange" d="M187.43,-67.37C195.58,-69.62 203.86,-72.02 212.07,-74.49"/>
<polygon fill="orange" stroke="orange" points="210.78,-77.76 221.36,-77.35 212.83,-71.07 210.78,-77.76"/>
</g>
<!-- nodo3 -->
<g id="node4" class="node">
<title>nodo3</title>
<polygon fill="gray" stroke="black" points="812.5,-107 642,-107 642,0 812.5,0 812.5,-107"/>
<text text-anchor="middle" x="727.25" y="-89.7" font-family="Times New Roman,serif" font-size="14.00" fill="white">ID: hk2atbc46s59ePp</text>
<text text-anchor="middle" x="727.25" y="-73.2" font-family="Times New Roman,serif" font-size="14.00" fill="white">Activo: 74URj77Zb3V3xaG</text>
<text text-anchor="middle" x="727.25" y="-56.7" font-family="Times New Roman,serif" font-size="14.00" fill="white">Usuario: juan</text>
<text text-anchor="middle" x="727.25" y="-40.2" font-family="Times New Roman,serif" font-size="14.00" fill="white">Depto/Emp: depa / empre</text>
<text text-anchor="middle" x="727.25" y="-23.7" font-family="Times New Roman,serif" font-size="14.00" fill="white">Fecha: 17/12/2024</text>
<text text-anchor="middle" x="727.25" y="-7.2" font-family="Times New Roman,serif" font-size="14.00" fill="white">Tiempo: 4 días</text>
</g>
<!-- nodo0&#45;&gt;nodo3 -->
<g id="edge2" class="edge">
<title>nodo0&#45;&gt;nodo3</title>
<path fill="none" stroke="orange" d="M198.46,-30.23C212.94,-29.05 223,-28.5 223,-28.5 223,-28.5 606,-28.5 606,-28.5 606,-28.5 621.7,-29.41 641.75,-31.43"/>
<polygon fill="orange" stroke="orange" points="198.37,-26.73 188.71,-31.08 198.98,-33.7 198.37,-26.73"/>
</g>
<!-- nodo1&#45;&gt;nodo0 -->
<g id="edge4" class="edge">
<title>nodo1&#45;&gt;nodo0</title>
<path fill="none" stroke="orange" d="M211.79,-101.34C203.67,-99.03 195.49,-96.6 187.43,-94.1"/>
<polygon fill="orange" stroke="orange" points="210.78,-104.69 221.35,-104.01 212.66,-97.95 210.78,-104.69"/>
</g>
<!-- nodo2 -->
<g id="node3" class="node">
<title>nodo2</title>
<polygon fill="gray" stroke="black" points="606,-171 440.75,-171 440.75,-64 606,-64 606,-171"/>
<text text-anchor="middle" x="523.38" y="-153.7" font-family="Times New Roman,serif" font-size="14.00" fill="white">ID: V2f2jpKo6Yhe441</text>
<text text-anchor="middle" x="523.38" y="-137.2" font-family="Times New Roman,serif" font-size="14.00" fill="white">Activo: xvDk5hU7rvZ2s03</text>
<text text-anchor="middle" x="523.38" y="-120.7" font-family="Times New Roman,serif" font-size="14.00" fill="white">Usuario: juan</text>
<text text-anchor="middle" x="523.38" y="-104.2" font-family="Times New Roman,serif" font-size="14.00" fill="white">Depto/Emp: depa / empre</text>
<text text-anchor="middle" x="523.38" y="-87.7" font-family="Times New Roman,serif" font-size="14.00" fill="white">Fecha: 17/12/2024</text>
<text text-anchor="middle" x="523.38" y="-71.2" font-family="Times New Roman,serif" font-size="14.00" fill="white">Tiempo: 4 días</text>
</g>
<!-- nodo1&#45;&gt;nodo2 -->
<g id="edge3" class="edge">
<title>nodo1&#45;&gt;nodo2</title>
<path fill="none" stroke="orange" d="M404.98,-104.1C413.01,-103.98 421.15,-103.97 429.2,-104.06"/>
<polygon fill="orange" stroke="orange" points="428.94,-107.56 439,-104.24 429.06,-100.56 428.94,-107.56"/>
</g>
<!-- nodo2&#45;&gt;nodo1 -->
<g id="edge6" class="edge">
<title>nodo2&#45;&gt;nodo1</title>
<path fill="none" stroke="orange" d="M429.2,-130.94C421.15,-131.03 413.01,-131.02 404.98,-130.9"/>
<polygon fill="orange" stroke="orange" points="429.06,-134.44 439,-130.76 428.94,-127.44 429.06,-134.44"/>
</g>
<!-- nodo2&#45;&gt;nodo3 -->
<g id="edge5" class="edge">
<title>nodo2&#45;&gt;nodo3</title>
<path fill="none" stroke="orange" d="M606.49,-78.18C614.44,-75.48 622.56,-72.84 630.63,-70.33"/>
<polygon fill="orange" stroke="orange" points="631.59,-73.7 640.14,-67.44 629.55,-67 631.59,-73.7"/>
</g>
<!-- nodo3&#45;&gt;nodo0 -->
<g id="edge7" class="edge">
<title>nodo3&#45;&gt;nodo0</title>
<path fill="none" stroke="orange" d="M641.75,-65.73C621.7,-65.41 606,-64.5 606,-64.5 606,-64.5 223,-64.5 223,-64.5 223,-64.5 212.94,-65.05 198.46,-65.44"/>
<polygon fill="orange" stroke="orange" points="198.64,-61.94 188.72,-65.66 198.79,-68.94 198.64,-61.94"/>
</g>
<!-- nodo3&#45;&gt;nodo2 -->
<g id="edge8" class="edge">
<title>nodo3&#45;&gt;nodo2</title>
<path fill="none" stroke="orange" d="M630.9,-97.21C622.74,-99.85 614.53,-102.39 606.49,-104.76"/>
<polygon fill="orange" stroke="orange" points="631.75,-100.62 640.15,-94.16 629.56,-93.97 631.75,-100.62"/>
</g>
</g>
</svg>
