<?xml version="1.0" encoding="UTF-8" standalone="no"?>
<!DOCTYPE svg PUBLIC "-//W3C//DTD SVG 1.1//EN"
 "http://www.w3.org/Graphics/SVG/1.1/DTD/svg11.dtd">
<!-- Generated by graphviz version 12.1.0 (20240811.2233)
 -->
<!-- Title: G Pages: 1 -->
<svg width="591pt" height="210pt"
 viewBox="0.00 0.00 590.75 209.50" xmlns="http://www.w3.org/2000/svg" xmlns:xlink="http://www.w3.org/1999/xlink">
<g id="graph0" class="graph" transform="scale(1 1) rotate(0) translate(4 205.5)">
<title>G</title>
<polygon fill="white" stroke="none" points="-4,4 -4,-205.5 586.75,-205.5 586.75,4 -4,4"/>
<text text-anchor="middle" x="291.38" y="-178.5" font-family="Times New Roman,serif" font-size="20.00" fill="red">Transacciones</text>
<!-- nodo0 -->
<g id="node1" class="node">
<title>nodo0</title>
<polygon fill="gray" stroke="black" points="171.25,-107 0,-107 0,0 171.25,0 171.25,-107"/>
<text text-anchor="middle" x="85.62" y="-89.7" font-family="Times New Roman,serif" font-size="14.00" fill="white">ID: Unu2s19m9pK5dIO</text>
<text text-anchor="middle" x="85.62" y="-73.2" font-family="Times New Roman,serif" font-size="14.00" fill="white">Activo: J0Nm5VEb039yiGa</text>
<text text-anchor="middle" x="85.62" y="-56.7" font-family="Times New Roman,serif" font-size="14.00" fill="white">Usuario: juan</text>
<text text-anchor="middle" x="85.62" y="-40.2" font-family="Times New Roman,serif" font-size="14.00" fill="white">Depto/Emp: depa / empre</text>
<text text-anchor="middle" x="85.62" y="-23.7" font-family="Times New Roman,serif" font-size="14.00" fill="white">Fecha: 17/12/2024</text>
<text text-anchor="middle" x="85.62" y="-7.2" font-family="Times New Roman,serif" font-size="14.00" fill="white">Tiempo: 1 días</text>
</g>
<!-- nodo1 -->
<g id="node2" class="node">
<title>nodo1</title>
<polygon fill="gray" stroke="black" points="371,-171 207.25,-171 207.25,-64 371,-64 371,-171"/>
<text text-anchor="middle" x="289.12" y="-153.7" font-family="Times New Roman,serif" font-size="14.00" fill="white">ID: 6et5699SVYc106b</text>
<text text-anchor="middle" x="289.12" y="-137.2" font-family="Times New Roman,serif" font-size="14.00" fill="white">Activo: J72rt047YIYw85C</text>
<text text-anchor="middle" x="289.12" y="-120.7" font-family="Times New Roman,serif" font-size="14.00" fill="white">Usuario: juan</text>
<text text-anchor="middle" x="289.12" y="-104.2" font-family="Times New Roman,serif" font-size="14.00" fill="white">Depto/Emp: depa / empre</text>
<text text-anchor="middle" x="289.12" y="-87.7" font-family="Times New Roman,serif" font-size="14.00" fill="white">Fecha: 17/12/2024</text>
<text text-anchor="middle" x="289.12" y="-71.2" font-family="Times New Roman,serif" font-size="14.00" fill="white">Tiempo: 4 días</text>
</g>
<!-- nodo0&#45;&gt;nodo1 -->
<g id="edge1" class="edge">
<title>nodo0&#45;&gt;nodo1</title>
<path fill="none" stroke="orange" d="M171.5,-67.11C179.65,-69.54 187.94,-72.14 196.16,-74.83"/>
<polygon fill="orange" stroke="orange" points="194.86,-78.09 205.46,-77.95 197.08,-71.45 194.86,-78.09"/>
</g>
<!-- nodo2 -->
<g id="node3" class="node">
<title>nodo2</title>
<polygon fill="gray" stroke="black" points="582.75,-107 407,-107 407,0 582.75,0 582.75,-107"/>
<text text-anchor="middle" x="494.88" y="-89.7" font-family="Times New Roman,serif" font-size="14.00" fill="white">ID: 5L7W349W7ds2396</text>
<text text-anchor="middle" x="494.88" y="-73.2" font-family="Times New Roman,serif" font-size="14.00" fill="white">Activo: 7uuKtAxW4Bj1CH9</text>
<text text-anchor="middle" x="494.88" y="-56.7" font-family="Times New Roman,serif" font-size="14.00" fill="white">Usuario: juan</text>
<text text-anchor="middle" x="494.88" y="-40.2" font-family="Times New Roman,serif" font-size="14.00" fill="white">Depto/Emp: depa / empre</text>
<text text-anchor="middle" x="494.88" y="-23.7" font-family="Times New Roman,serif" font-size="14.00" fill="white">Fecha: 17/12/2024</text>
<text text-anchor="middle" x="494.88" y="-7.2" font-family="Times New Roman,serif" font-size="14.00" fill="white">Tiempo: 5 días</text>
</g>
<!-- nodo0&#45;&gt;nodo2 -->
<g id="edge2" class="edge">
<title>nodo0&#45;&gt;nodo2</title>
<path fill="none" stroke="orange" d="M182.82,-30.35C197.16,-29.09 207.25,-28.5 207.25,-28.5 207.25,-28.5 371,-28.5 371,-28.5 371,-28.5 386.53,-29.38 406.54,-31.33"/>
<polygon fill="orange" stroke="orange" points="182.85,-26.84 173.22,-31.26 183.5,-33.8 182.85,-26.84"/>
</g>
<!-- nodo1&#45;&gt;nodo0 -->
<g id="edge4" class="edge">
<title>nodo1&#45;&gt;nodo0</title>
<path fill="none" stroke="orange" d="M195.88,-101.66C187.75,-99.16 179.56,-96.52 171.5,-93.81"/>
<polygon fill="orange" stroke="orange" points="194.86,-105.01 205.44,-104.54 196.87,-98.3 194.86,-105.01"/>
</g>
<!-- nodo1&#45;&gt;nodo2 -->
<g id="edge3" class="edge">
<title>nodo1&#45;&gt;nodo2</title>
<path fill="none" stroke="orange" d="M371.24,-78.77C379.34,-76.03 387.62,-73.35 395.88,-70.79"/>
<polygon fill="orange" stroke="orange" points="396.68,-74.2 405.24,-67.95 394.65,-67.51 396.68,-74.2"/>
</g>
<!-- nodo2&#45;&gt;nodo0 -->
<g id="edge5" class="edge">
<title>nodo2&#45;&gt;nodo0</title>
<path fill="none" stroke="orange" d="M406.54,-65.72C386.53,-65.38 371,-64.5 371,-64.5 371,-64.5 207.25,-64.5 207.25,-64.5 207.25,-64.5 197.16,-65.09 182.82,-65.48"/>
<polygon fill="orange" stroke="orange" points="183.14,-61.97 173.22,-65.69 183.3,-68.97 183.14,-61.97"/>
</g>
<!-- nodo2&#45;&gt;nodo1 -->
<g id="edge6" class="edge">
<title>nodo2&#45;&gt;nodo1</title>
<path fill="none" stroke="orange" d="M395.88,-97.77C387.62,-100.4 379.34,-102.92 371.24,-105.27"/>
<polygon fill="orange" stroke="orange" points="396.82,-101.15 405.25,-94.73 394.65,-94.49 396.82,-101.15"/>
</g>
</g>
</svg>
